<svg xmlns="http://www.w3.org/2000/svg" viewBox="0 0 822 608" width="822" height="608">
	<style>
		tspan { white-space:pre }
		.shp0 { fill: #f2f2f2 } 
		.shp1 { fill: #3f3d56 } 
		.shp2 { fill: #0069d9 } 
		.shp3 { fill: #e6e6e6 } 
		.shp4 { fill: #ff6584 } 
		.shp5 { fill: #cccccc } 
		.shp6 { fill: #ffb8b8 } 
		.shp7 { fill: #2f2e41 } 
		.shp8 { fill: #a0616a } 
	</style>
	<path id="Layer" class="shp0" d="M182.08 58L129.68 58C127.18 58 124.71 58.5 122.41 59.45C120.1 60.41 118.01 61.81 116.25 63.57C114.48 65.33 113.08 67.43 112.13 69.73C111.17 72.04 110.68 74.51 110.68 77L110.68 133.81C110.01 133.77 109.34 133.71 108.68 133.63C83.35 130.97 61.73 114.18 52.87 90.31C44.01 66.43 49.45 39.61 66.91 21.07C84.36 2.53 110.82 -4.51 135.18 2.9C159.54 10.31 177.6 30.88 181.78 56C181.89 56.66 181.99 57.33 182.08 58Z" />
	<path id="Layer" fill-rule="evenodd" class="shp1" d="M800.68 56C803.43 56 806.16 56.55 808.71 57.6C811.26 58.66 813.57 60.21 815.52 62.16C817.47 64.11 819.02 66.42 820.07 68.97C821.13 71.51 821.67 74.24 821.68 77L821.68 431C821.67 433.76 821.13 436.49 820.07 439.03C819.02 441.58 817.47 443.89 815.52 445.84C813.57 447.79 811.26 449.34 808.71 450.4C806.16 451.45 803.43 452 800.68 452L129.68 452C126.92 452 124.19 451.45 121.64 450.4C119.1 449.34 116.78 447.79 114.83 445.84C112.88 443.89 111.34 441.58 110.28 439.03C109.22 436.49 108.68 433.76 108.68 431L108.68 77C108.68 74.24 109.22 71.51 110.28 68.97C111.34 66.42 112.88 64.11 114.83 62.16C116.78 60.21 119.1 58.66 121.64 57.6C124.19 56.55 126.92 56 129.68 56L800.68 56ZM819.68 77C819.67 74.51 819.18 72.04 818.23 69.73C817.27 67.43 815.87 65.33 814.11 63.57C812.34 61.81 810.25 60.41 807.94 59.45C805.64 58.5 803.17 58 800.68 58L129.68 58C127.18 58 124.71 58.5 122.41 59.45C120.1 60.41 118.01 61.81 116.25 63.57C114.48 65.33 113.08 67.43 112.13 69.73C111.17 72.04 110.68 74.51 110.68 77L110.68 431C110.68 433.49 111.17 435.96 112.13 438.27C113.08 440.57 114.48 442.67 116.25 444.43C118.01 446.19 120.1 447.59 122.41 448.55C124.71 449.5 127.18 450 129.68 450L800.68 450C803.17 450 805.64 449.5 807.94 448.55C810.25 447.59 812.34 446.19 814.11 444.43C815.87 442.67 817.27 440.57 818.23 438.27C819.18 435.96 819.67 433.49 819.68 431L819.68 77Z" />
	<path id="Layer" class="shp1" d="M767.68 113.37L162.68 113.37C162.41 113.37 162.16 113.26 161.97 113.08C161.78 112.89 161.68 112.63 161.68 112.37C161.68 112.1 161.78 111.85 161.97 111.66C162.16 111.47 162.41 111.37 162.68 111.37L767.68 111.37C767.94 111.37 768.2 111.47 768.38 111.66C768.57 111.85 768.68 112.1 768.68 112.37C768.68 112.63 768.57 112.89 768.38 113.08C768.2 113.26 767.94 113.37 767.68 113.37Z" />
	<path id="Layer" class="shp1" d="M333.68 409C333.54 409 333.41 408.97 333.29 408.92C333.17 408.87 333.06 408.8 332.97 408.71C332.88 408.61 332.8 408.5 332.75 408.38C332.7 408.26 332.68 408.13 332.68 408L332.68 79C332.68 78.73 332.78 78.48 332.97 78.29C333.16 78.11 333.41 78 333.68 78C333.94 78 334.2 78.11 334.38 78.29C334.57 78.48 334.68 78.73 334.68 79L334.68 408C334.68 408.13 334.65 408.26 334.6 408.38C334.55 408.5 334.48 408.61 334.38 408.71C334.29 408.8 334.18 408.87 334.06 408.92C333.94 408.97 333.81 409 333.68 409L333.68 409Z" />
	<path id="Layer" class="shp1" d="M484.68 409C484.54 409 484.41 408.97 484.29 408.92C484.17 408.87 484.06 408.8 483.97 408.71C483.88 408.61 483.8 408.5 483.75 408.38C483.7 408.26 483.68 408.13 483.68 408L483.68 79C483.68 78.73 483.78 78.48 483.97 78.29C484.16 78.11 484.41 78 484.68 78C484.94 78 485.2 78.11 485.38 78.29C485.57 78.48 485.68 78.73 485.68 79L485.68 408C485.68 408.13 485.65 408.26 485.6 408.38C485.55 408.5 485.48 408.61 485.38 408.71C485.29 408.8 485.18 408.87 485.06 408.92C484.94 408.97 484.81 409 484.68 409L484.68 409Z" />
	<path id="Layer" class="shp1" d="M635.68 409C635.54 409 635.41 408.97 635.29 408.92C635.17 408.87 635.06 408.8 634.97 408.71C634.88 408.61 634.8 408.5 634.75 408.38C634.7 408.26 634.68 408.13 634.68 408L634.68 79C634.68 78.73 634.78 78.48 634.97 78.29C635.16 78.11 635.41 78 635.68 78C635.94 78 636.2 78.11 636.38 78.29C636.57 78.48 636.68 78.73 636.68 79L636.68 408C636.68 408.13 636.65 408.26 636.6 408.38C636.55 408.5 636.48 408.61 636.38 408.71C636.29 408.8 636.18 408.87 636.06 408.92C635.94 408.97 635.81 409 635.68 409L635.68 409Z" />
	<path id="Layer" class="shp2" d="M236.59 216.59L200.05 216.59C199.46 216.59 198.88 216.47 198.33 216.24C197.78 216.02 197.29 215.69 196.87 215.27C196.45 214.85 196.12 214.35 195.9 213.81C195.67 213.26 195.55 212.68 195.55 212.09L195.55 168.97C195.55 168.38 195.67 167.79 195.9 167.25C196.12 166.7 196.45 166.21 196.87 165.79C197.29 165.37 197.78 165.04 198.33 164.81C198.88 164.59 199.46 164.47 200.05 164.47L236.59 164.47C237.18 164.47 237.77 164.59 238.31 164.81C238.86 165.04 239.35 165.37 239.77 165.79C240.19 166.21 240.52 166.7 240.75 167.25C240.97 167.79 241.09 168.38 241.09 168.97L241.09 212.09C241.09 212.68 240.97 213.26 240.75 213.81C240.52 214.35 240.19 214.85 239.77 215.27C239.35 215.69 238.86 216.02 238.31 216.24C237.77 216.47 237.18 216.59 236.59 216.59L236.59 216.59Z" />
	<path id="Layer" class="shp2" d="M288.59 339.59L252.05 339.59C251.46 339.59 250.88 339.47 250.33 339.24C249.78 339.02 249.29 338.69 248.87 338.27C248.45 337.85 248.12 337.35 247.9 336.81C247.67 336.26 247.55 335.68 247.55 335.09L247.55 291.97C247.55 291.38 247.67 290.79 247.9 290.25C248.12 289.7 248.45 289.21 248.87 288.79C249.29 288.37 249.78 288.04 250.33 287.81C250.88 287.59 251.46 287.47 252.05 287.47L288.59 287.47C289.18 287.47 289.77 287.59 290.31 287.81C290.86 288.04 291.35 288.37 291.77 288.79C292.19 289.21 292.52 289.7 292.75 290.25C292.97 290.79 293.09 291.38 293.09 291.97L293.09 335.09C293.09 335.68 292.97 336.26 292.75 336.81C292.52 337.35 292.19 337.85 291.77 338.27C291.35 338.69 290.86 339.02 290.31 339.24C289.77 339.47 289.18 339.59 288.59 339.59L288.59 339.59Z" />
	<path id="Layer" class="shp2" d="M406.59 242.59L370.05 242.59C369.46 242.59 368.88 242.47 368.33 242.24C367.79 242.02 367.29 241.69 366.87 241.27C366.45 240.85 366.12 240.35 365.9 239.81C365.67 239.26 365.55 238.68 365.55 238.09L365.55 194.97C365.55 194.38 365.67 193.79 365.9 193.25C366.12 192.7 366.45 192.21 366.87 191.79C367.29 191.37 367.79 191.04 368.33 190.81C368.88 190.59 369.46 190.47 370.05 190.47L406.59 190.47C407.18 190.47 407.77 190.59 408.31 190.81C408.86 191.04 409.35 191.37 409.77 191.79C410.19 192.21 410.52 192.7 410.75 193.25C410.97 193.79 411.09 194.38 411.09 194.97L411.09 238.09C411.09 238.68 410.97 239.26 410.75 239.81C410.52 240.35 410.19 240.85 409.77 241.27C409.35 241.69 408.86 242.02 408.31 242.24C407.77 242.47 407.18 242.59 406.59 242.59L406.59 242.59Z" />
	<path id="Layer" class="shp2" d="M559.59 195.59L523.05 195.59C522.46 195.59 521.88 195.47 521.33 195.24C520.79 195.02 520.29 194.69 519.87 194.27C519.45 193.85 519.12 193.35 518.9 192.81C518.67 192.26 518.55 191.68 518.55 191.09L518.55 147.97C518.55 147.38 518.67 146.79 518.9 146.25C519.12 145.7 519.45 145.21 519.87 144.79C520.29 144.37 520.79 144.04 521.33 143.81C521.88 143.59 522.46 143.47 523.05 143.47L559.59 143.47C560.18 143.47 560.77 143.59 561.31 143.81C561.86 144.04 562.35 144.37 562.77 144.79C563.19 145.21 563.52 145.7 563.75 146.25C563.97 146.79 564.09 147.38 564.09 147.97L564.09 191.09C564.09 191.68 563.97 192.26 563.75 192.81C563.52 193.35 563.19 193.85 562.77 194.27C562.35 194.69 561.86 195.02 561.31 195.24C560.77 195.47 560.18 195.59 559.59 195.59L559.59 195.59Z" />
	<path id="Layer" class="shp2" d="M700.59 195.59L664.05 195.59C663.46 195.59 662.88 195.47 662.33 195.24C661.79 195.02 661.29 194.69 660.87 194.27C660.45 193.85 660.12 193.35 659.9 192.81C659.67 192.26 659.55 191.68 659.55 191.09L659.55 147.97C659.55 147.38 659.67 146.79 659.9 146.25C660.12 145.7 660.45 145.21 660.87 144.79C661.29 144.37 661.79 144.04 662.33 143.81C662.88 143.59 663.46 143.47 664.05 143.47L700.59 143.47C701.18 143.47 701.77 143.59 702.31 143.81C702.86 144.04 703.35 144.37 703.77 144.79C704.19 145.21 704.52 145.7 704.75 146.25C704.97 146.79 705.09 147.38 705.09 147.97L705.09 191.09C705.09 191.68 704.97 192.26 704.75 192.81C704.52 193.35 704.19 193.85 703.77 194.27C703.35 194.69 702.86 195.02 702.31 195.24C701.77 195.47 701.18 195.59 700.59 195.59L700.59 195.59Z" />
	<path id="Layer" class="shp3" d="M765.59 207.59L729.05 207.59C728.46 207.59 727.88 207.47 727.33 207.24C726.79 207.02 726.29 206.69 725.87 206.27C725.45 205.85 725.12 205.35 724.9 204.81C724.67 204.26 724.55 203.68 724.55 203.09L724.55 159.97C724.55 159.38 724.67 158.79 724.9 158.25C725.12 157.7 725.45 157.21 725.87 156.79C726.29 156.37 726.79 156.04 727.33 155.81C727.88 155.59 728.46 155.47 729.05 155.47L765.59 155.47C766.18 155.47 766.77 155.59 767.31 155.81C767.86 156.04 768.35 156.37 768.77 156.79C769.19 157.21 769.52 157.7 769.75 158.25C769.97 158.79 770.09 159.38 770.09 159.97L770.09 203.09C770.09 203.68 769.97 204.26 769.75 204.81C769.52 205.35 769.19 205.85 768.77 206.27C768.35 206.69 767.86 207.02 767.31 207.24C766.77 207.47 766.18 207.59 765.59 207.59L765.59 207.59Z" />
	<path id="Layer" class="shp3" d="M736.59 284.59L700.05 284.59C699.46 284.59 698.88 284.47 698.33 284.24C697.79 284.02 697.29 283.69 696.87 283.27C696.45 282.85 696.12 282.35 695.9 281.81C695.67 281.26 695.55 280.68 695.55 280.09L695.55 236.97C695.55 236.38 695.67 235.79 695.9 235.25C696.12 234.7 696.45 234.21 696.87 233.79C697.29 233.37 697.79 233.04 698.33 232.81C698.88 232.59 699.46 232.47 700.05 232.47L736.59 232.47C737.18 232.47 737.77 232.59 738.31 232.81C738.86 233.04 739.35 233.37 739.77 233.79C740.19 234.21 740.52 234.7 740.75 235.25C740.97 235.79 741.09 236.38 741.09 236.97L741.09 280.09C741.09 280.68 740.97 281.26 740.75 281.81C740.52 282.35 740.19 282.85 739.77 283.27C739.35 283.69 738.86 284.02 738.31 284.24C737.77 284.47 737.18 284.59 736.59 284.59L736.59 284.59Z" />
	<path id="Layer" class="shp4" d="M612.59 268.59L576.05 268.59C575.46 268.59 574.88 268.47 574.33 268.24C573.79 268.02 573.29 267.69 572.87 267.27C572.45 266.85 572.12 266.35 571.9 265.81C571.67 265.26 571.55 264.68 571.55 264.09L571.55 220.97C571.55 220.38 571.67 219.79 571.9 219.25C572.12 218.7 572.45 218.21 572.87 217.79C573.29 217.37 573.79 217.04 574.33 216.81C574.88 216.59 575.46 216.47 576.05 216.47L612.59 216.47C613.18 216.47 613.77 216.59 614.31 216.81C614.86 217.04 615.35 217.37 615.77 217.79C616.19 218.21 616.52 218.7 616.75 219.25C616.97 219.79 617.09 220.38 617.09 220.97L617.09 264.09C617.09 264.68 616.97 265.26 616.75 265.81C616.52 266.35 616.19 266.85 615.77 267.27C615.35 267.69 614.86 268.02 614.31 268.24C613.77 268.47 613.18 268.59 612.59 268.59L612.59 268.59Z" />
	<path id="Layer" class="shp3" d="M541.59 284.59L505.05 284.59C504.46 284.59 503.88 284.47 503.33 284.24C502.79 284.02 502.29 283.69 501.87 283.27C501.45 282.85 501.12 282.35 500.9 281.81C500.67 281.26 500.55 280.68 500.55 280.09L500.55 236.97C500.55 236.38 500.67 235.79 500.9 235.25C501.12 234.7 501.45 234.21 501.87 233.79C502.29 233.37 502.79 233.04 503.33 232.81C503.88 232.59 504.46 232.47 505.05 232.47L541.59 232.47C542.18 232.47 542.77 232.59 543.31 232.81C543.86 233.04 544.35 233.37 544.77 233.79C545.19 234.21 545.52 234.7 545.75 235.25C545.97 235.79 546.09 236.38 546.09 236.97L546.09 280.09C546.09 280.68 545.97 281.26 545.75 281.81C545.52 282.35 545.19 282.85 544.77 283.27C544.35 283.69 543.86 284.02 543.31 284.24C542.77 284.47 542.18 284.59 541.59 284.59L541.59 284.59Z" />
	<path id="Layer" class="shp3" d="M388.59 352.59L352.05 352.59C351.46 352.59 350.88 352.47 350.33 352.24C349.79 352.02 349.29 351.69 348.87 351.27C348.45 350.85 348.12 350.35 347.9 349.81C347.67 349.26 347.55 348.68 347.55 348.09L347.55 304.97C347.55 304.38 347.67 303.79 347.9 303.25C348.12 302.7 348.45 302.21 348.87 301.79C349.29 301.37 349.79 301.04 350.33 300.81C350.88 300.59 351.46 300.47 352.05 300.47L388.59 300.47C389.18 300.47 389.77 300.59 390.31 300.81C390.86 301.04 391.35 301.37 391.77 301.79C392.19 302.21 392.52 302.7 392.75 303.25C392.97 303.79 393.09 304.38 393.09 304.97L393.09 348.09C393.09 348.68 392.97 349.26 392.75 349.81C392.52 350.35 392.19 350.85 391.77 351.27C391.35 351.69 390.86 352.02 390.31 352.24C389.77 352.47 389.18 352.59 388.59 352.59Z" />
	<path id="Layer" class="shp4" d="M203.59 295.59L167.05 295.59C166.46 295.59 165.88 295.47 165.33 295.24C164.78 295.02 164.29 294.69 163.87 294.27C163.45 293.85 163.12 293.35 162.9 292.81C162.67 292.26 162.55 291.68 162.55 291.09L162.55 247.97C162.55 247.38 162.67 246.79 162.9 246.25C163.12 245.7 163.45 245.21 163.87 244.79C164.29 244.37 164.78 244.04 165.33 243.81C165.88 243.59 166.46 243.47 167.05 243.47L203.59 243.47C204.18 243.47 204.77 243.59 205.31 243.81C205.86 244.04 206.35 244.37 206.77 244.79C207.19 245.21 207.52 245.7 207.75 246.25C207.97 246.79 208.09 247.38 208.09 247.97L208.09 291.09C208.09 291.68 207.97 292.26 207.75 292.81C207.52 293.35 207.19 293.85 206.77 294.27C206.35 294.69 205.86 295.02 205.31 295.24C204.77 295.47 204.18 295.59 203.59 295.59L203.59 295.59Z" />
	<path id="Layer" class="shp3" d="M306.59 216.59L270.05 216.59C269.46 216.59 268.88 216.47 268.33 216.24C267.78 216.02 267.29 215.69 266.87 215.27C266.45 214.85 266.12 214.35 265.9 213.81C265.67 213.26 265.55 212.68 265.55 212.09L265.55 168.97C265.55 168.38 265.67 167.79 265.9 167.25C266.12 166.7 266.45 166.21 266.87 165.79C267.29 165.37 267.78 165.04 268.33 164.81C268.88 164.59 269.46 164.47 270.05 164.47L306.59 164.47C307.18 164.47 307.77 164.59 308.31 164.81C308.86 165.04 309.35 165.37 309.77 165.79C310.19 166.21 310.52 166.7 310.75 167.25C310.97 167.79 311.09 168.38 311.09 168.97L311.09 212.09C311.09 212.68 310.97 213.26 310.75 213.81C310.52 214.35 310.19 214.85 309.77 215.27C309.35 215.69 308.86 216.02 308.31 216.24C307.77 216.47 307.18 216.59 306.59 216.59L306.59 216.59Z" />
	<path id="Layer" class="shp5" d="M276.68 97L219.68 97C218.62 97 217.6 96.58 216.85 95.83C216.1 95.08 215.68 94.06 215.68 93C215.68 91.94 216.1 90.92 216.85 90.17C217.6 89.42 218.62 89 219.68 89L276.68 89C277.74 89 278.75 89.42 279.5 90.17C280.25 90.92 280.68 91.94 280.68 93C280.68 94.06 280.25 95.08 279.5 95.83C278.75 96.58 277.74 97 276.68 97Z" />
	<path id="Layer" class="shp5" d="M437.68 97L380.68 97C379.62 97 378.6 96.58 377.85 95.83C377.1 95.08 376.68 94.06 376.68 93C376.68 91.94 377.1 90.92 377.85 90.17C378.6 89.42 379.62 89 380.68 89L437.68 89C438.74 89 439.75 89.42 440.5 90.17C441.25 90.92 441.68 91.94 441.68 93C441.68 94.06 441.25 95.08 440.5 95.83C439.75 96.58 438.74 97 437.68 97Z" />
	<path id="Layer" class="shp5" d="M588.68 97L531.68 97C530.62 97 529.6 96.58 528.85 95.83C528.1 95.08 527.68 94.06 527.68 93C527.68 91.94 528.1 90.92 528.85 90.17C529.6 89.42 530.62 89 531.68 89L588.68 89C589.74 89 590.75 89.42 591.5 90.17C592.25 90.92 592.68 91.94 592.68 93C592.68 94.06 592.25 95.08 591.5 95.83C590.75 96.58 589.74 97 588.68 97Z" />
	<path id="Layer" class="shp5" d="M729.68 97L672.68 97C671.62 97 670.6 96.58 669.85 95.83C669.1 95.08 668.68 94.06 668.68 93C668.68 91.94 669.1 90.92 669.85 90.17C670.6 89.42 671.62 89 672.68 89L729.68 89C730.74 89 731.75 89.42 732.5 90.17C733.25 90.92 733.68 91.94 733.68 93C733.68 94.06 733.25 95.08 732.5 95.83C731.75 96.58 730.74 97 729.68 97Z" />
	<path id="Layer" class="shp6" d="M149.01 389.89C147.55 389.75 146.13 389.29 144.87 388.54C143.6 387.79 142.52 386.77 141.69 385.56C140.86 384.34 140.3 382.96 140.07 381.51C139.83 380.06 139.91 378.58 140.31 377.16L114.68 353.3L128.23 349.86L153.43 370.31C155.77 371.13 157.72 372.79 158.91 374.95C160.11 377.12 160.47 379.65 159.92 382.06C159.38 384.48 157.96 386.61 155.95 388.05C153.94 389.49 151.47 390.15 149.01 389.89L149.01 389.89Z" />
	<path id="Layer" class="shp6" d="M184.4 566.25L196.66 566.25L202.5 518.97L184.4 518.97L184.4 566.25L184.4 566.25Z" />
	<path id="Layer" class="shp7" d="M220.31 577.64L181.78 577.64L181.78 562.75L205.42 562.75C207.38 562.75 209.31 563.13 211.12 563.88C212.92 564.63 214.56 565.73 215.95 567.11C217.33 568.49 218.43 570.13 219.17 571.94C219.92 573.74 220.31 575.68 220.31 577.64L220.31 577.64C591.28 1300.86 591.28 1300.86 591.28 1300.86L591.28 1300.86L591.28 1300.86L591.28 1300.86L220.31 577.64Z" />
	<path id="Layer" class="shp6" d="M100.34 557.4L112.19 560.55L129.99 516.36L112.51 511.7L100.34 557.4L100.34 557.4Z" />
	<path id="Layer" class="shp7" d="M132.11 577.64L94.88 567.73L98.71 553.34L121.56 559.42C123.45 559.93 125.22 560.8 126.77 561.98C128.32 563.17 129.63 564.65 130.61 566.35C131.59 568.04 132.22 569.9 132.48 571.84C132.74 573.78 132.62 575.75 132.11 577.64L132.11 577.64C223 1345.39 223 1345.39 223 1345.39L223 1345.39L223 1345.39L223 1345.39L132.11 577.64Z" />
	<path id="Layer" class="shp7" d="M199.96 557.3L181.25 557.3C180.67 557.3 180.09 557.2 179.54 556.98C178.99 556.77 178.49 556.46 178.06 556.07C177.62 555.68 177.27 555.21 177.01 554.68C176.74 554.16 176.58 553.59 176.53 553.01L165.17 435.08C165.09 434.21 164.71 433.4 164.09 432.79C163.48 432.17 162.67 431.79 161.8 431.7C160.94 431.62 160.07 431.84 159.35 432.32C158.63 432.81 158.1 433.53 157.85 434.36L124.88 544.56C124.7 545.14 124.42 545.68 124.05 546.16C123.67 546.63 123.2 547.03 122.68 547.33C122.15 547.63 121.57 547.82 120.97 547.9C120.37 547.99 119.76 547.95 119.18 547.81L101.77 543.45C101.17 543.3 100.59 543.03 100.09 542.66C99.59 542.28 99.17 541.82 98.85 541.28C98.53 540.74 98.31 540.14 98.23 539.52C98.14 538.9 98.17 538.27 98.33 537.67C98.61 536.56 126.74 426.64 126.98 425.51C133.36 378.54 140.98 365.96 145.08 359.19C145.41 358.63 145.73 358.12 146.01 357.63C146.36 357.03 148.52 350.99 149.89 347.07C149.98 346.75 150.1 346.44 150.25 346.15C150.4 345.86 150.59 345.58 150.8 345.33C151 345.07 151.24 344.84 151.5 344.63C151.75 344.42 152.03 344.24 152.33 344.09C169.54 335.29 189.67 341.38 195.43 343.46C195.67 343.54 195.9 343.65 196.12 343.77C196.34 343.89 196.55 344.02 196.75 344.18C196.95 344.33 197.13 344.5 197.31 344.69C197.48 344.87 197.63 345.07 197.77 345.28C215.06 371.35 206.57 522.77 204.7 552.86C204.66 553.45 204.51 554.04 204.25 554.58C204 555.12 203.64 555.61 203.21 556.01C202.77 556.42 202.26 556.75 201.71 556.97C201.15 557.19 200.56 557.3 199.96 557.3Z" />
	<path id="Layer" class="shp6" d="M151.68 258.59C138.1 258.59 127.12 247.61 127.12 234.02C127.12 220.44 138.1 209.46 151.68 209.46C165.27 209.46 176.25 220.44 176.25 234.02C176.25 247.61 165.27 258.59 151.68 258.59Z" />
	<path id="Layer" class="shp5" d="M149.08 351.84L148.91 351.67C148.57 351.35 115.85 319.29 120.08 289.64C121.9 276.96 132.16 268.86 149.75 266.21C152.96 265.74 156.22 265.84 159.4 266.51C162.57 267.19 165.59 268.43 168.32 270.17C171.06 271.91 173.46 274.13 175.41 276.72C177.36 279.31 178.83 282.23 179.75 285.33L197.15 344.82L149.08 351.84Z" />
	<path id="Layer" class="shp5" d="M132.33 374.64L109.01 351.47C108.22 350.68 107.53 349.78 106.96 348.82C106.4 347.85 105.96 346.81 105.65 345.73C105.35 344.65 105.19 343.53 105.17 342.41C105.15 341.29 105.27 340.17 105.53 339.08L116.82 293.16C117.16 291.78 117.78 290.49 118.64 289.36C119.49 288.24 120.57 287.3 121.81 286.6C123.04 285.91 124.41 285.48 125.82 285.33C127.23 285.19 128.65 285.33 130 285.76C131.28 286.17 132.46 286.82 133.49 287.68C134.52 288.54 135.37 289.59 136 290.78C136.63 291.96 137.02 293.25 137.16 294.59C137.3 295.92 137.18 297.27 136.81 298.55L124.93 338.95L144.15 359.59L132.33 374.64Z" />
	<path id="Layer" class="shp6" d="M257.4 295.56C256.79 296.9 255.89 298.08 254.76 299.03C253.64 299.98 252.32 300.67 250.9 301.05C249.48 301.44 248 301.5 246.55 301.25C245.1 301 243.73 300.43 242.52 299.59L211.39 315.73L212.77 302.02L240.36 284.94C241.91 283.01 244.11 281.71 246.55 281.3C248.99 280.88 251.5 281.37 253.6 282.68C255.7 283.99 257.25 286.03 257.95 288.4C258.65 290.77 258.46 293.32 257.4 295.56L257.4 295.56Z" />
	<path id="Layer" class="shp5" d="M239.12 305.76L208.77 318.88C207.77 319.31 206.71 319.61 205.63 319.77C204.55 319.94 203.45 319.96 202.36 319.84C201.27 319.72 200.2 319.47 199.18 319.08C198.16 318.69 197.19 318.17 196.3 317.54L157.71 289.89C156.56 289.07 155.59 288.01 154.86 286.8C154.13 285.58 153.66 284.23 153.47 282.83C153.29 281.42 153.39 279.99 153.78 278.63C154.17 277.27 154.84 276 155.74 274.9C156.59 273.87 157.64 273.02 158.82 272.38C160 271.75 161.29 271.35 162.62 271.2C163.95 271.06 165.3 271.17 166.59 271.54C167.88 271.9 169.09 272.51 170.14 273.34L203.23 299.38L229.53 289.2L239.12 305.76Z" />
	<path id="Layer" class="shp7" d="M155.76 241.89C158.79 238.1 164.45 237.89 168.61 235.39C174.06 232.11 176.31 224.78 174.56 218.66C172.8 212.55 167.62 207.78 161.68 205.5C155.74 203.22 149.13 203.2 142.86 204.3C133.53 205.94 124.35 210.29 118.66 217.87C112.97 225.44 111.52 236.53 116.68 244.48C119.05 248.13 122.7 251.15 123.65 255.4C124.89 260.98 120.98 266.36 116.79 270.24C112.01 274.67 106.53 278.38 102.34 283.37C98.16 288.35 95.37 295.17 97.28 301.4C98.88 306.61 103.53 310.46 108.64 312.38C113.75 314.31 119.31 314.58 124.76 314.69C130.06 314.79 135.68 314.67 140.15 311.81C144.92 308.75 147.48 302.95 147.66 297.28C147.85 291.61 145.96 286.06 143.42 280.99C141.91 277.96 140.15 275.04 139.14 271.81C138.14 268.58 137.96 264.92 139.57 261.94C141.26 258.82 144.69 256.94 148.18 256.25C148.36 256.22 148.55 256.18 148.75 256.15C149.74 256.03 150.7 255.7 151.56 255.19C152.42 254.68 153.17 254 153.76 253.2C154.35 252.39 154.78 251.47 155 250.5C155.23 249.52 155.26 248.51 155.08 247.53C154.68 245.31 154.72 243.19 155.76 241.89Z" />
	<path id="Layer" class="shp8" d="M483.23 567.3L470.97 567.3L465.14 520.01L483.23 520.01L483.23 567.3L483.23 567.3Z" />
	<path id="Layer" class="shp7" d="M462.21 563.8L485.86 563.8L485.86 578.68L447.33 578.68L447.33 578.68C447.33 576.73 447.71 574.79 448.46 572.99C449.21 571.18 450.3 569.54 451.69 568.16C453.07 566.77 454.71 565.68 456.52 564.93C458.32 564.18 460.26 563.8 462.21 563.8L462.21 563.8Z" />
	<path id="Layer" class="shp8" d="M572.18 553.41L561.03 558.51L536.08 517.92L552.54 510.4L572.18 553.41L572.18 553.41Z" />
	<path id="Layer" class="shp7" d="M551.61 558.96L573.12 549.14L579.3 562.68L544.26 578.68L544.26 578.68C543.44 576.91 542.99 574.99 542.92 573.03C542.85 571.08 543.17 569.13 543.85 567.3C544.53 565.47 545.57 563.79 546.9 562.36C548.23 560.93 549.83 559.77 551.61 558.96L551.61 558.96Z" />
	<path id="Layer" class="shp8" d="M536.48 407.86C537.66 406.97 538.62 405.84 539.31 404.54C540 403.25 540.4 401.81 540.48 400.34C540.55 398.88 540.31 397.41 539.76 396.05C539.2 394.68 538.36 393.46 537.28 392.46L551.69 359.76L533.39 362.86L522.51 393.44C520.95 395.36 520.14 397.78 520.25 400.26C520.36 402.73 521.37 405.08 523.09 406.85C524.81 408.63 527.13 409.72 529.6 409.9C532.06 410.09 534.51 409.36 536.48 407.86Z" />
	<path id="Layer" class="shp7" d="M482.45 554.83L470.74 554.83C470.17 554.83 469.61 554.72 469.09 554.52C468.57 554.31 468.09 554.01 467.68 553.62C467.26 553.24 466.93 552.78 466.68 552.27C466.44 551.77 466.29 551.22 466.25 550.66L459.86 380.1C459.81 379.45 459.91 378.79 460.14 378.18C460.37 377.56 460.74 377.01 461.21 376.55C461.68 376.09 462.24 375.74 462.86 375.53C463.48 375.31 464.13 375.23 464.79 375.29L532.52 382.49C533.06 382.54 533.59 382.69 534.08 382.94C534.57 383.18 535.02 383.51 535.39 383.91C535.76 384.31 536.05 384.78 536.26 385.29C536.46 385.79 536.57 386.33 536.58 386.88L538 462.12C538 462.22 538.01 462.32 538.02 462.42C538.03 462.52 538.05 462.62 538.07 462.72C538.09 462.82 538.11 462.92 538.14 463.02C538.17 463.12 538.2 463.21 538.24 463.31L566.02 535.36C566.24 535.92 566.34 536.51 566.32 537.11C566.3 537.71 566.17 538.29 565.92 538.84C565.68 539.38 565.32 539.87 564.89 540.28C564.45 540.68 563.94 541 563.38 541.2L551.51 545.58C551 545.76 550.46 545.86 549.91 545.85C549.37 545.85 548.83 545.74 548.32 545.55C547.81 545.35 547.35 545.06 546.94 544.7C546.54 544.33 546.2 543.9 545.95 543.41L511.82 477.04C511.77 476.95 511.73 476.86 511.69 476.77C511.65 476.68 511.61 476.58 511.58 476.49C511.55 476.39 511.51 476.29 511.49 476.2C511.46 476.1 511.44 476 511.42 475.9L505.58 447.81C505.42 446.99 504.96 446.26 504.3 445.75C503.65 445.24 502.83 444.98 502 445.02C501.17 445.06 500.38 445.39 499.77 445.96C499.16 446.53 498.78 447.29 498.68 448.12L486.92 550.84C486.86 551.39 486.7 551.92 486.44 552.4C486.19 552.89 485.85 553.32 485.44 553.69C485.03 554.05 484.56 554.34 484.05 554.54C483.54 554.73 483 554.83 482.45 554.83L482.45 554.83Z" />
	<path id="Layer" class="shp8" d="M488.28 246.74C474.7 246.74 463.72 235.76 463.72 222.18C463.72 208.6 474.7 197.62 488.28 197.62C501.86 197.62 512.84 208.6 512.84 222.18C512.84 235.76 501.86 246.74 488.28 246.74Z" />
	<path id="Layer" class="shp2" d="M505.12 395.69C500.99 395.65 496.86 395.31 492.77 394.68C488.68 394.05 484.64 393.13 480.67 391.94C476.71 390.74 472.84 389.26 469.09 387.51C465.34 385.76 461.72 383.75 458.25 381.5L458.01 381.33L458.04 381.04L467.43 271.63C467.59 269.78 468.08 267.99 468.88 266.32C469.67 264.65 470.76 263.14 472.1 261.86C473.43 260.58 474.98 259.54 476.67 258.81C478.37 258.08 480.18 257.66 482.03 257.56C494.21 257 510.56 257.71 519.32 264.23C532.55 274.09 538.92 288.92 536.81 304.94C532.43 338.16 537.39 382.97 537.97 387.97L538.02 388.33L537.69 388.48C535.15 389.67 532.54 390.71 529.89 391.61C527.23 392.51 524.53 393.26 521.8 393.87C519.06 394.47 516.3 394.93 513.51 395.23C510.72 395.54 507.93 395.69 505.12 395.69L505.12 395.69Z" />
	<path id="Layer" class="shp2" d="M537.86 388.16C537.51 388.16 537.17 388.12 536.83 388.05C536.49 387.98 536.17 387.87 535.85 387.73C535.53 387.59 535.23 387.42 534.95 387.22C534.67 387.02 534.41 386.79 534.18 386.54L528.81 380.67C528.52 380.36 528.27 380 528.07 379.62C527.87 379.24 527.72 378.84 527.62 378.42C527.53 378 527.49 377.57 527.5 377.15C527.51 376.72 527.58 376.29 527.7 375.88L539.95 334.42L521.31 295.27C521.09 294.82 520.92 294.35 520.78 293.86C520.65 293.38 520.55 292.88 520.5 292.38C520.45 291.88 520.44 291.38 520.47 290.88C520.51 290.38 520.59 289.88 520.7 289.39C521.13 287.66 522.07 286.1 523.39 284.91C524.72 283.73 526.38 282.97 528.15 282.75C529.91 282.52 531.71 282.84 533.29 283.65C534.87 284.46 536.17 285.74 537.02 287.31L562.31 328.35C562.82 329.18 563.23 330.07 563.53 331C563.82 331.93 564.01 332.89 564.07 333.86C564.13 334.83 564.07 335.81 563.9 336.77C563.73 337.73 563.43 338.66 563.03 339.55L542.42 385.21C542.25 385.59 542.04 385.94 541.78 386.27C541.53 386.59 541.23 386.88 540.9 387.13C540.58 387.38 540.22 387.59 539.84 387.75C539.46 387.91 539.06 388.03 538.66 388.09C538.59 388.1 538.52 388.11 538.46 388.12C538.39 388.13 538.33 388.14 538.26 388.14C538.19 388.15 538.13 388.15 538.06 388.15C537.99 388.16 537.93 388.16 537.86 388.16L537.86 388.16Z" />
	<path id="Layer" class="shp8" d="M364.74 308.95C365.92 309.83 367.27 310.44 368.71 310.73C370.15 311.03 371.64 311.01 373.07 310.67C374.5 310.32 375.84 309.67 376.99 308.76C378.14 307.85 379.08 306.69 379.74 305.37L415.17 309.97L407.03 293.28L374.63 291.48C372.34 290.52 369.79 290.43 367.45 291.24C365.11 292.04 363.14 293.67 361.92 295.82C360.7 297.98 360.31 300.5 360.83 302.92C361.35 305.34 362.74 307.49 364.74 308.95L364.74 308.95Z" />
	<path id="Layer" class="shp2" d="M442.85 318.07C442.7 318.07 442.54 318.06 442.39 318.06C442.23 318.05 442.08 318.05 441.92 318.03C441.77 318.02 441.62 318.01 441.46 318C441.31 317.98 441.16 317.96 441 317.94L385.25 310.21C384.8 310.14 384.36 310.03 383.93 309.85C383.51 309.68 383.1 309.46 382.73 309.19C382.37 308.92 382.03 308.6 381.74 308.25C381.45 307.9 381.2 307.51 381 307.1C380.97 307.03 380.94 306.96 380.91 306.89C380.88 306.83 380.85 306.76 380.83 306.69C380.8 306.62 380.78 306.55 380.75 306.48C380.73 306.41 380.71 306.34 380.69 306.27L380.68 306.27C380.58 305.9 380.51 305.52 380.48 305.14C380.45 304.76 380.46 304.37 380.51 303.99C380.56 303.61 380.65 303.24 380.77 302.87C380.9 302.51 381.06 302.16 381.26 301.83L385.87 294.19C386.12 293.78 386.42 293.41 386.76 293.07C387.1 292.74 387.49 292.46 387.9 292.22C388.32 291.99 388.76 291.81 389.22 291.69C389.68 291.56 390.15 291.5 390.63 291.5L390.64 291.5L439.23 291.56L475.53 259.04C475.94 258.66 476.39 258.33 476.87 258.03C477.35 257.73 477.85 257.48 478.37 257.26C478.88 257.05 479.42 256.88 479.97 256.76C480.52 256.64 481.07 256.57 481.63 256.54C483.62 256.45 485.59 256.96 487.28 258.01C488.97 259.06 490.3 260.59 491.1 262.41C491.89 264.24 492.12 266.26 491.75 268.21C491.38 270.16 490.42 271.96 489.01 273.35L452.79 313.63C452.17 314.33 451.47 314.96 450.71 315.51C449.96 316.06 449.15 316.53 448.29 316.91C447.44 317.29 446.55 317.58 445.63 317.77C444.72 317.97 443.78 318.07 442.85 318.07Z" />
	<path id="Layer" class="shp7" d="M491.07 244.03C493.32 238.83 495.22 231.92 490.91 228.24C488.41 226.11 484.82 226.11 481.54 225.84C472.33 225.1 462.84 220.86 458.33 212.78C453.83 204.7 456.34 192.7 464.84 189.05C470.57 186.6 477.14 188.27 483.14 189.97L501.14 195.08C506.49 196.59 512.11 198.27 515.96 202.28C522.11 208.67 521.65 219.49 516.77 226.89C511.89 234.3 504.54 242.03 496.13 244.84L491.07 244.03Z" />
</svg>